<?xml version="1.0" encoding="utf-8"?>
<!-- Generator: Adobe Illustrator 16.0.0, SVG Export Plug-In . SVG Version: 6.00 Build 0)  -->
<!DOCTYPE svg PUBLIC "-//W3C//DTD SVG 1.1//EN" "http://www.w3.org/Graphics/SVG/1.1/DTD/svg11.dtd">
<svg version="1.1" id="Layer_1" xmlns="http://www.w3.org/2000/svg" xmlns:xlink="http://www.w3.org/1999/xlink" x="0px" y="0px"
	 width="1774.656px" height="841.891px" viewBox="0 0 1774.656 841.891" enable-background="new 0 0 1774.656 841.891"
	 xml:space="preserve">
<path fill="#FF860D" d="M480.529,249.987c0,17.875-14.49,142.727-32.364,142.727c-17.875,0-32.365-124.853-32.365-142.727
	c0-17.874,14.49-25.72,32.365-25.72C466.039,224.267,480.529,232.113,480.529,249.987z"/>
<g>
	<path fill="#E56107" d="M466.424,249.987c0,17.875-8.175,142.727-18.261,142.727c-10.085,0-18.262-124.853-18.262-142.727
		c0-17.874,8.177-25.72,18.262-25.72C458.25,224.267,466.424,232.113,466.424,249.987z"/>
	<path fill="#E56107" d="M435.863,249.011c0,0.991-0.805,1.804-1.812,1.804h-7.45c-0.991,0-1.797-0.814-1.797-1.804l0,0
		c0-0.99,0.806-1.804,1.797-1.804h7.459C435.066,247.216,435.863,248.021,435.863,249.011L435.863,249.011z"/>
</g>
<path fill="#FF860D" d="M445.538,260.909c0,0.999-0.805,1.804-1.812,1.804h-7.45c-1,0-1.805-0.806-1.805-1.804l0,0
	c0-0.991,0.807-1.804,1.805-1.804h7.45C444.742,259.105,445.538,259.919,445.538,260.909L445.538,260.909z"/>
<path fill="#E56107" d="M435.863,275.159c0,0.991-0.805,1.797-1.812,1.797h-7.45c-0.991,0-1.797-0.806-1.797-1.797l0,0
	c0-0.991,0.806-1.796,1.797-1.796h7.459C435.066,273.363,435.863,274.168,435.863,275.159L435.863,275.159z"/>
<path fill="#FF860D" d="M445.538,287.048c0,0.991-0.805,1.797-1.812,1.797h-7.45c-1,0-1.805-0.806-1.805-1.797l0,0
	c0-0.99,0.807-1.804,1.805-1.804h7.45C444.742,285.244,445.538,286.057,445.538,287.048L445.538,287.048z"/>
<path fill="#E56107" d="M435.863,301.298c0,0.99-0.805,1.796-1.812,1.796h-7.45c-0.991,0-1.797-0.806-1.797-1.796l0,0
	c0-1,0.806-1.804,1.797-1.804h7.459C435.066,299.493,435.863,300.3,435.863,301.298L435.863,301.298z"/>
<path fill="#FF860D" d="M445.538,313.187c0,0.99-0.805,1.804-1.812,1.804h-7.45c-1,0-1.805-0.814-1.805-1.804l0,0
	c0-0.991,0.807-1.804,1.805-1.804h7.45C444.742,311.39,445.538,312.196,445.538,313.187L445.538,313.187z"/>
<path fill="#E56107" d="M439.513,329.434c0,0.878-0.709,1.586-1.58,1.586h-6.573c-0.869,0-1.577-0.708-1.577-1.586l0,0
	c0-0.871,0.708-1.579,1.577-1.579h6.573C438.804,327.856,439.513,328.556,439.513,329.434L439.513,329.434z"/>
<path fill="#FF860D" d="M440.777,339.898c0,0.87-0.709,1.579-1.587,1.579h-6.566c-0.869,0-1.578-0.709-1.578-1.579l0,0
	c0-0.862,0.709-1.579,1.578-1.579h6.566C440.068,338.31,440.777,339.028,440.777,339.898L440.777,339.898z"/>
<path fill="#E56107" d="M440.368,355.073c0,0.708-0.563,1.273-1.274,1.273h-5.275c-0.7,0-1.265-0.563-1.265-1.273l0,0
	c0-0.693,0.563-1.265,1.265-1.265h5.275C439.793,353.808,440.368,354.388,440.368,355.073L440.368,355.073z"/>
<path fill="#FF860D" d="M447.206,363.482c0,0.701-0.563,1.266-1.273,1.266h-5.284c-0.691,0-1.265-0.564-1.265-1.266l0,0
	c0-0.7,0.571-1.273,1.265-1.273h5.284C446.642,362.21,447.206,362.782,447.206,363.482L447.206,363.482z"/>
<path fill="#E56107" d="M460.472,249.011c0,0.991,0.805,1.804,1.812,1.804h7.459c0.991,0,1.796-0.814,1.796-1.804l0,0
	c0-0.99-0.805-1.804-1.796-1.804h-7.459C461.268,247.216,460.472,248.021,460.472,249.011L460.472,249.011z"/>
<path fill="#FF860D" d="M450.798,260.909c0,0.999,0.805,1.804,1.796,1.804h7.467c0.999,0,1.805-0.806,1.805-1.804l0,0
	c0-0.991-0.807-1.804-1.805-1.804h-7.467C451.595,259.105,450.798,259.919,450.798,260.909L450.798,260.909z"/>
<path fill="#E56107" d="M460.472,275.159c0,0.991,0.805,1.797,1.812,1.797h7.459c0.991,0,1.796-0.806,1.796-1.797l0,0
	c0-0.991-0.805-1.796-1.796-1.796h-7.459C461.268,273.363,460.472,274.168,460.472,275.159L460.472,275.159z"/>
<path fill="#FF860D" d="M450.798,287.048c0,0.991,0.805,1.797,1.796,1.797h7.467c0.999,0,1.805-0.806,1.805-1.797l0,0
	c0-0.99-0.807-1.804-1.805-1.804h-7.467C451.595,285.244,450.798,286.057,450.798,287.048L450.798,287.048z"/>
<path fill="#E56107" d="M460.472,301.298c0,0.99,0.805,1.796,1.812,1.796h7.459c0.991,0,1.796-0.806,1.796-1.796l0,0
	c0-1-0.805-1.804-1.796-1.804h-7.459C461.268,299.493,460.472,300.3,460.472,301.298L460.472,301.298z"/>
<path fill="#FF860D" d="M450.798,313.187c0,0.99,0.805,1.804,1.796,1.804h7.467c0.999,0,1.805-0.814,1.805-1.804l0,0
	c0-0.991-0.807-1.804-1.805-1.804h-7.467C451.595,311.39,450.798,312.196,450.798,313.187L450.798,313.187z"/>
<path fill="#E56107" d="M456.824,329.434c0,0.878,0.708,1.586,1.578,1.586h6.572c0.871,0,1.58-0.708,1.58-1.586l0,0
	c0-0.871-0.709-1.579-1.58-1.579h-6.572C457.532,327.856,456.824,328.556,456.824,329.434L456.824,329.434z"/>
<path fill="#FF860D" d="M454.946,339.898c0,0.87,0.693,1.579,1.571,1.579h6.573c0.862,0,1.588-0.709,1.588-1.579l0,0
	c0-0.862-0.726-1.579-1.588-1.579h-6.573C455.639,338.31,454.946,339.028,454.946,339.898L454.946,339.898z"/>
<path fill="#E56107" d="M455.969,355.073c0,0.708,0.563,1.273,1.273,1.273h5.275c0.7,0,1.264-0.563,1.264-1.273l0,0
	c0-0.693-0.563-1.265-1.264-1.265h-5.275C456.541,353.808,455.969,354.388,455.969,355.073L455.969,355.073z"/>
<path fill="#FF860D" d="M449.13,363.482c0,0.701,0.563,1.266,1.273,1.266h5.284c0.692,0,1.257-0.564,1.257-1.266l0,0
	c0-0.7-0.563-1.273-1.257-1.273h-5.284C449.694,362.21,449.13,362.782,449.13,363.482L449.13,363.482z"/>
<path fill="#FFAF10" d="M475.873,235.117c-5.661-7.434-15.94-10.857-27.701-10.857s-22.037,3.423-27.702,10.857
	c1.636,6.42,13.404,4.447,27.702,4.447S474.239,241.536,475.873,235.117z"/>
<path fill="#FF860D" d="M448.171,239.564c6.485,0,12.412,0.402,17.149,0.25c-2.528-10.698-9.247-15.554-17.149-15.554
	s-14.612,4.857-17.149,15.554C435.751,239.959,441.687,239.564,448.171,239.564z"/>
<path fill="#68AD27" d="M432.891,200.061c1.588,2.232,17.923,29.015,15.683,30.601c-2.23,1.595-22.2-22.586-23.802-24.826
	c-1.586-2.231-1.072-5.34,1.176-6.935C428.196,197.307,431.296,197.83,432.891,200.061z"/>
<path fill="#5C8729" d="M429.444,211.596c1.668,1.289,19.413,17.238,18.124,18.889c-1.272,1.659-21.119-11.616-22.764-12.904
	c-1.65-1.28-1.966-3.657-0.677-5.317C425.4,210.614,427.793,210.317,429.444,211.596z"/>
<path fill="#7FCC2E" d="M442.097,197.162c0.887,2.594,8.78,32.937,6.186,33.815c-2.607,0.878-14.724-28.041-15.616-30.649
	c-0.863-2.594,0.53-5.421,3.141-6.309C438.393,193.151,441.221,194.545,442.097,197.162z"/>
<path fill="#68AD27" d="M463.444,200.061c-1.596,2.232-17.923,29.015-15.682,30.601c2.231,1.595,22.198-22.586,23.794-24.826
	c1.595-2.231,1.079-5.34-1.161-6.935C468.148,197.307,465.032,197.83,463.444,200.061z"/>
<path fill="#5C8729" d="M466.875,211.596c-1.65,1.289-19.396,17.238-18.106,18.889c1.273,1.659,21.119-11.616,22.763-12.904
	c1.651-1.28,1.949-3.657,0.677-5.317C470.919,210.614,468.543,210.317,466.875,211.596z"/>
<path fill="#7FCC2E" d="M454.237,197.162c-0.893,2.594-8.787,32.937-6.186,33.815c2.61,0.878,14.726-28.041,15.619-30.649
	c0.862-2.594-0.531-5.421-3.142-6.309C457.943,193.151,455.115,194.545,454.237,197.162z"/>
<path fill="#5C8729" d="M453.56,192.031c0,2.979-2.417,39.139-5.396,39.139c-2.98,0-5.397-36.16-5.397-39.139
	c0-2.98,2.417-5.397,5.397-5.397C451.143,186.634,453.56,189.05,453.56,192.031z"/>
<path fill="#CE7C2C" d="M299.152,387.237c11.536,10.253,34.058,3.746,50.338-14.54c16.255-18.286,86.938-116.597,75.435-126.868
	c-11.551-10.238-100.946,71.473-117.201,89.758C291.469,353.848,287.634,376.975,299.152,387.237z"/>
<g>
	<path fill="#2A6893" d="M243.888,493.403c0,19.943-16.166,127.487-36.135,127.487c-19.936,0-36.103-107.553-36.103-127.487
		c0-19.937,16.175-36.119,36.103-36.119C227.722,457.284,243.888,473.467,243.888,493.403z"/>
	<path fill="#2A6893" d="M364.922,493.403c0,19.943-16.174,127.487-36.135,127.487c-19.937,0-36.103-107.553-36.103-127.487
		c0-19.937,16.175-36.119,36.103-36.119C348.749,457.284,364.922,473.467,364.922,493.403z"/>
</g>
<g>
	<path fill="#E2821A" d="M370.174,445.677c0,129.187-45.615,86.164-101.896,86.164c-56.272,0-101.896,43.022-101.896-86.164
		c0-73.865,45.64-133.739,101.896-133.739C324.551,311.947,370.174,371.82,370.174,445.677z"/>
	<path fill="#E2821A" d="M257.042,331.681c10.254,11.536,3.746,34.057-14.54,50.336c-18.285,16.255-116.604,86.946-126.867,75.436
		c-10.238-11.552,71.48-100.947,89.75-117.202C223.646,323.997,246.787,320.155,257.042,331.681z"/>
</g>
<rect x="242.769" y="309.892" transform="matrix(0.7071 -0.7071 0.7071 0.7071 -158.5881 287.9386)" fill="#DD9F76" width="51.02" height="51.02"/>
<path fill="#B27029" d="M248.407,621.542c0,15.273-18.205,17.287-40.646,17.287c-22.425,0-40.638-2.006-40.638-17.287
	c0-15.28,18.212-36.312,40.638-36.312C230.202,585.239,248.407,606.262,248.407,621.542z"/>
<path fill="#A05810" d="M248.407,621.542c0,15.273-18.205,17.287-40.646,17.287c-22.425,0-40.638-2.006-40.638-17.287"/>
<path fill="#B27029" d="M369.426,621.542c0,15.273-18.188,17.287-40.63,17.287c-22.434,0-40.637-2.006-40.637-17.287
	c0-15.28,18.204-36.312,40.637-36.312C351.237,585.239,369.426,606.262,369.426,621.542z"/>
<path fill="#A05810" d="M369.426,621.542c0,15.273-18.188,17.287-40.63,17.287c-22.434,0-40.637-2.006-40.637-17.287"/>
<path fill="#E8B085" d="M400.148,250.373c0,64.433-59.053,96.822-131.853,96.822c-72.834,0-131.886-32.39-131.886-96.822
	c0-64.448,59.052-127.068,131.886-127.068C341.095,123.305,400.148,185.925,400.148,250.373z"/>
<path fill="#DD9F76" d="M400.148,250.373c0,64.433-59.053,96.822-131.853,96.822c-72.834,0-131.886-32.39-131.886-96.822"/>
<path fill="#543722" d="M311.517,294.87c0,23.883-19.348,43.239-43.239,43.239c-23.892,0-43.239-19.356-43.239-43.239v-37.102
	h-6.106c-3.552,7.258-5.695,15.33-5.695,23.964v65.688c16.771,4.72,35.386,7.168,55.057,7.168c19.654,0,38.261-2.449,55.023-7.168
	v-65.688c0-8.627-2.142-16.698-5.695-23.964h-6.105V294.87z"/>
<circle fill="#000202" cx="205.569" cy="229.092" r="11.793"/>
<path d="M217.362,229.093c0,6.532-5.292,11.801-11.793,11.801c-6.524,0-11.792-5.269-11.792-11.801"/>
<path fill="#F4C3A2" d="M228.833,253.693c-0.628,0-1.273-0.227-1.764-0.733c-5.759-5.751-13.403-8.917-21.522-8.917h-0.025
	c-8.111,0-15.732,3.174-21.467,8.909c-0.966,0.974-2.545,0.999-3.52,0.008c-0.975-0.943-0.999-2.513-0.024-3.496
	c6.686-6.695,15.562-10.391,25.003-10.391h0.024c9.473,0,18.35,3.674,25.051,10.374c0.958,0.958,0.958,2.562,0,3.513
	C230.122,253.458,229.494,253.693,228.833,253.693z"/>
<path d="M319.203,229.093c0,6.532,5.261,11.801,11.801,11.801c6.516,0,11.784-5.269,11.784-11.801
	c0-6.509-5.267-11.793-11.784-11.793C324.463,217.3,319.203,222.584,319.203,229.093z"/>
<path d="M319.203,229.093c0,6.532,5.261,11.801,11.801,11.801c6.516,0,11.784-5.269,11.784-11.801"/>
<path fill="#F4C3A2" d="M307.731,253.693c0.605,0,1.257-0.227,1.749-0.733c5.76-5.751,13.403-8.917,21.522-8.917h0.008
	c8.128,0,15.771,3.174,21.492,8.909c0.957,0.974,2.528,0.999,3.511,0.008c0.983-0.943,1-2.513,0.025-3.496
	c-6.654-6.695-15.563-10.391-25.02-10.391h-0.009c-9.457,0-18.351,3.674-25.066,10.374c-0.944,0.958-0.944,2.562,0,3.513
	C306.444,253.458,307.072,253.693,307.731,253.693z"/>
<path fill="#663F24" d="M272,261.336c0,0-13.782-29.659-50.843-5.292c-37.062,24.367-40.243,16.939-40.243,16.939
	s39.179,28.62,81.557,10.617l6.356-5.316L272,261.336z"/>
<path fill="#543722" d="M180.914,272.976c0,0,39.179,28.62,81.557,10.617l6.356-5.316l3.181-16.947"/>
<path fill="#663F24" d="M264.565,261.336c0,0,13.766-29.659,50.834-5.292c37.07,24.367,40.243,16.939,40.243,16.939
	s-39.171,28.62-81.549,10.617l-6.364-5.316L264.565,261.336z"/>
<path fill="#543722" d="M355.634,272.976c0,0-39.17,28.62-81.549,10.617l-6.363-5.316l-3.166-16.947"/>
<g>
	<circle fill="#FFFFFF" cx="268.271" cy="397.846" r="6.718"/>
	<circle fill="#FFFFFF" cx="268.271" cy="442.124" r="6.717"/>
</g>
<path fill="#4C250B" d="M393.535,215.939l0.636-1.322c-16.722-50.021-66.768-91.312-125.884-91.312
	c-59.132,0-109.179,41.29-125.917,91.312l0.644,1.322l20.137,20.137v-51.013l69.805-38.929l35.063,35.063v0.516l0.257-0.258
	l0.258,0.258v-0.516l35.064-35.063l69.804,38.929v51.013L393.535,215.939z"/>
<g>
	<path fill="#5C8729" d="M556.265,309.549c1.608,0.09,3.059-0.134,4.355-0.67c1.294-0.536,2.566-1.116,3.818-1.742
		c1.964-0.982,3.819-2.01,5.562-3.082c1.742-1.072,3.417-2.322,5.024-3.752c5.448-4.466,11.256-8.218,17.42-11.256
		c1.072-0.446,2.145-0.871,3.217-1.273c1.071-0.402,2.231-0.603,3.483-0.603c1.428,0,2.479,0.381,3.149,1.139
		c0.67,0.76,0.781,1.765,0.335,3.015c-0.448,1.162-0.938,2.211-1.475,3.149c-0.535,0.938-1.34,1.765-2.411,2.479
		c-3.752,2.592-7.416,5.182-10.988,7.772c-3.574,2.592-7.236,5.182-10.988,7.772c-3.038,2.056-6.143,3.976-9.313,5.762
		c-3.173,1.788-6.59,3.082-10.251,3.886c-1.521,0.448-3.062,0.76-4.623,0.938c-1.564,0.18-3.149,0.358-4.758,0.536
		c-1.787,0.18-3.529,0.067-5.226-0.335c-1.698-0.402-3.396-0.959-5.092-1.675c-0.358-0.178-0.693-0.402-1.005-0.67
		c-0.314-0.268-0.56-0.58-0.737-0.938c-0.626-1.428-1.252-2.814-1.876-4.154c-0.626-1.34-1.072-2.724-1.34-4.154
		c-1.43-6.432-2.458-12.841-3.082-19.229c-0.626-6.386-1.162-12.797-1.608-19.229c-0.448-6.164-0.938-12.261-1.474-18.291
		c-0.536-6.03-1.252-12.127-2.145-18.291c-0.626-4.288-1.139-8.597-1.541-12.931c-0.401-4.332-0.736-8.687-1.005-13.065
		c-0.447-5.716-0.76-11.434-0.938-17.152c-0.181-5.716-0.358-11.478-0.536-17.286c-0.088-3.304-0.044-6.587,0.134-9.849
		c0.178-3.26,0.446-6.499,0.805-9.715c0.178-1.786,0.557-3.551,1.139-5.293c0.58-1.742,1.139-3.505,1.675-5.293
		c0.356-0.892,0.938-1.428,1.742-1.608c0.804-0.178,1.562-0.268,2.278-0.268c2.768-0.088,5.158,0.737,7.169,2.479
		c2.01,1.742,3.417,3.909,4.221,6.499c0.624,2.144,1.183,4.288,1.675,6.432c0.49,2.144,0.825,4.334,1.005,6.566
		c0.178,1.43,0.335,2.814,0.469,4.154c0.135,1.34,0.245,2.68,0.336,4.02c0.178,2.412,0.312,4.847,0.401,7.303
		c0.088,2.458,0.178,4.938,0.269,7.437c0.088,2.412,0.134,4.824,0.134,7.236c0,2.412,0,4.824,0,7.236c0,0.536,0,1.072,0,1.608
		c0,0.536,0.088,1.028,0.268,1.474c0.446,1.788,0.67,3.551,0.67,5.293s0.044,3.507,0.135,5.293c0.178,1.52,0.335,3.082,0.469,4.69
		s0.289,3.172,0.469,4.69c0.088,0.894,0.134,1.742,0.134,2.546c0,0.804,0.044,1.654,0.134,2.546c0.269,2.86,0.558,5.718,0.871,8.576
		c0.313,2.86,0.825,5.718,1.541,8.576c0.446,1.52,0.691,3.038,0.737,4.556c0.044,1.52,0.155,3.038,0.335,4.556
		c0.269,1.698,0.536,3.396,0.804,5.092c0.269,1.698,0.536,3.396,0.805,5.092c0.445,2.592,0.892,5.205,1.34,7.839
		c0.446,2.636,0.714,5.293,0.804,7.973c0.178,3.752,0.513,7.416,1.005,10.988c0.49,3.574,0.915,7.192,1.273,10.854
		c0.088,0.626,0.201,1.229,0.335,1.809C555.93,308.188,556.085,308.835,556.265,309.549z"/>
	<path fill="#5C8729" d="M696.428,269.483c-1.698,3.752-3.417,7.46-5.159,11.122c-1.742,3.664-3.598,7.326-5.562,10.988
		c-1.788,3.484-3.818,6.813-6.097,9.983c-2.278,3.172-4.713,6.231-7.303,9.179c-3.933,4.646-8.375,8.153-13.333,10.519
		c-4.958,2.368-10.653,3.193-17.085,2.479c-6.7-0.714-12.418-2.814-17.152-6.298c-4.736-3.484-8.666-8.174-11.792-14.07
		c-2.144-4.288-3.819-8.643-5.025-13.065s-2.032-8.999-2.479-13.735c-0.448-3.662-0.647-7.28-0.604-10.854
		c0.047-3.572,0.155-7.19,0.335-10.854c0.179-3.752,0.58-7.458,1.206-11.122c0.624-3.662,1.475-7.324,2.546-10.988
		c1.519-5.36,3.371-10.54,5.562-15.544c2.188-5.002,5.069-9.692,8.643-14.07c2.145-2.68,4.511-5.069,7.103-7.169
		c2.59-2.098,5.403-3.953,8.441-5.561c2.591-1.34,5.247-2.433,7.974-3.283c2.724-0.848,5.515-1.361,8.375-1.541
		c3.216-0.178,6.386,0,9.514,0.536c3.126,0.536,6.118,1.832,8.979,3.886c0.714,0.536,1.45,1.051,2.211,1.541
		c0.758,0.492,1.541,0.961,2.345,1.407c2.768,1.788,5.159,3.932,7.169,6.432c2.01,2.502,3.863,5.182,5.561,8.04
		c1.696,2.86,2.769,5.896,3.217,9.112c0.445,3.216,0.355,6.522-0.269,9.916c-2.144,11.078-7.37,20.592-15.678,28.542
		c-2.412,2.324-4.87,4.579-7.37,6.767c-2.502,2.19-5.138,4.221-7.906,6.097c-3.932,2.592-8.019,4.69-12.261,6.298
		c-4.244,1.608-8.777,2.502-13.601,2.68c-0.091,0-0.492,0.09-1.206,0.268c0.624,3.842,1.562,7.46,2.813,10.854
		c1.25,3.396,3.082,6.522,5.494,9.38c2.054,2.324,4.355,4.066,6.901,5.226c2.546,1.162,5.337,1.832,8.375,2.01
		c1.25,0.09,2.345-0.155,3.282-0.737c0.938-0.58,1.897-1.227,2.882-1.943c2.054-1.786,3.93-3.729,5.628-5.829
		c1.695-2.098,3.26-4.309,4.689-6.633c2.055-3.126,3.931-6.298,5.628-9.514c1.696-3.216,3.217-6.52,4.557-9.916
		c0.714-1.608,1.541-2.969,2.479-4.087c0.938-1.116,2.299-1.809,4.087-2.077c1.072,0.09,2.011,0.358,2.814,0.804
		c0.624,0.448,1.116,1.051,1.474,1.809C697.186,267.227,697.051,268.233,696.428,269.483z M634.52,269.348
		c1.16-0.178,2.211-0.312,3.148-0.402c0.938-0.088,1.854-0.268,2.747-0.536c3.126-0.714,6.098-1.763,8.911-3.149
		c2.814-1.384,5.471-3.015,7.973-4.891c2.055-1.518,4.021-3.059,5.896-4.623c1.876-1.562,3.706-3.193,5.494-4.891
		c3.752-3.394,6.7-7.236,8.844-11.524c2.145-4.288,3.618-8.888,4.422-13.802c0.446-2.232,0.446-4.355,0-6.365
		c-0.448-2.01-1.43-3.907-2.948-5.695c-2.859-3.394-6.23-5.605-10.116-6.633c-3.887-1.026-7.839-0.557-11.859,1.407
		c-3.484,1.698-6.499,3.909-9.045,6.633c-2.546,2.726-4.669,5.785-6.365,9.179c-2.86,5.718-4.914,11.838-6.164,18.358
		c-0.716,3.484-1.229,6.968-1.541,10.452c-0.313,3.484-0.381,7.014-0.201,10.586c0.088,0.984,0.201,1.943,0.335,2.881
		C634.185,267.271,634.339,268.277,634.52,269.348z"/>
	<path fill="#5C8729" d="M790.897,197.257c0.178-0.446,0.356-0.825,0.536-1.139c0.178-0.312,0.355-0.647,0.536-1.005
		c1.518-4.02,3.236-7.839,5.159-11.457c1.92-3.618,3.906-7.257,5.963-10.921c4.644-8.396,10.63-15.766,17.956-22.11
		c3.126-2.768,6.565-4.868,10.317-6.298c2.858-1.16,5.628-1.183,8.309-0.067c2.68,1.118,4.777,2.971,6.298,5.561
		c1.428,2.592,2.433,5.226,3.015,7.906c0.58,2.68,1.005,5.45,1.273,8.308c0.355,3.306,0.289,6.499-0.201,9.581
		c-0.492,3.082-1.273,6.187-2.345,9.313c-0.181,0.448-0.402,0.894-0.67,1.34c-0.269,0.448-0.536,0.894-0.805,1.34
		c-2.324,4.11-5.024,7.839-8.106,11.189s-6.455,6.455-10.117,9.313c-3.307,2.592-6.746,4.914-10.318,6.968
		c-3.574,2.056-7.37,3.708-11.39,4.958c-1.966,0.626-3.933,1.229-5.896,1.809c-1.966,0.582-3.976,1.185-6.029,1.809
		c-0.091,0.09-0.402,0.314-0.938,0.67c0.088,0.984,0.178,1.966,0.269,2.948c0.088,0.984,0.178,1.966,0.268,2.948
		c0.178,2.144,0.355,4.311,0.536,6.499c0.178,2.19,0.446,4.355,0.804,6.499c0.446,3.842,1.005,7.638,1.675,11.39
		s1.228,7.55,1.676,11.39c0.535,3.752,0.981,7.527,1.34,11.323c0.355,3.798,0.758,7.617,1.206,11.457
		c0.178,2.324,0.335,4.646,0.469,6.968c0.134,2.324,0.201,4.646,0.201,6.968c0,1.52-0.046,3.061-0.134,4.623
		c-0.091,1.564-0.314,3.105-0.671,4.623c-0.357,1.34-0.826,2.659-1.406,3.953c-0.582,1.296-1.14,2.613-1.676,3.953
		c-0.18,0.448-0.381,0.871-0.603,1.273c-0.224,0.402-0.425,0.827-0.603,1.273c-0.536,1.162-1.341,1.518-2.412,1.072
		c-0.984-0.446-1.899-0.938-2.747-1.474c-0.851-0.536-1.587-1.34-2.211-2.412c-1.521-2.68-2.659-5.471-3.417-8.375
		c-0.761-2.902-1.273-5.917-1.541-9.045c-0.181-1.964-0.492-3.886-0.938-5.762c-0.448-1.876-0.804-3.796-1.072-5.762
		c-0.447-2.858-0.826-5.739-1.139-8.643c-0.314-2.902-0.693-5.829-1.139-8.777l-0.805-5.628c-0.357-2.858-0.716-5.739-1.071-8.643
		c-0.358-2.902-0.67-5.783-0.938-8.643c-0.357-2.948-0.648-5.896-0.871-8.844c-0.224-2.948-0.425-5.896-0.603-8.844
		c-0.448-4.824-0.804-9.625-1.072-14.405c-0.268-4.778-0.582-9.581-0.938-14.405c-0.269-4.288-0.536-8.597-0.805-12.931
		c-0.268-4.332-0.492-8.643-0.67-12.931c-0.178-1.608-0.245-3.237-0.201-4.891c0.047-1.652,0.111-3.283,0.201-4.891
		c0.088-0.714,0.245-1.474,0.469-2.278c0.223-0.804,0.47-1.562,0.737-2.278c0.356-1.072,1.25-1.608,2.68-1.608
		c3.931,0.09,6.7,1.966,8.309,5.628c0.624,1.698,1.16,3.53,1.607,5.494c0.446,2.234,0.893,4.445,1.341,6.633
		c0.445,2.19,0.892,4.401,1.34,6.633c0.268,1.52,0.513,3.038,0.736,4.556c0.223,1.521,0.47,3.038,0.737,4.556
		C790.449,195.872,790.629,196.452,790.897,197.257z M792.639,214.408c1.695-0.714,3.283-1.407,4.757-2.077
		c1.474-0.67,2.925-1.407,4.355-2.211c2.59-1.428,5.136-2.881,7.638-4.355c2.5-1.474,5.002-2.969,7.504-4.489
		c1.25-0.714,2.389-1.518,3.417-2.412c1.025-0.892,2.077-1.83,3.149-2.814c1.607-1.428,3.035-2.948,4.287-4.556
		c1.25-1.608,2.5-3.304,3.752-5.092c0.982-1.518,1.854-3.036,2.613-4.556c0.758-1.518,1.407-3.126,1.943-4.824
		c0.892-2.59,1.474-5.247,1.742-7.973c0.268-2.724,0.445-5.471,0.535-8.241c0-0.714-0.046-1.407-0.134-2.077
		c-0.09-0.67-0.224-1.361-0.401-2.077c-0.269-1.518-1.206-2.5-2.814-2.948c-0.894-0.178-1.698-0.155-2.412,0.067
		c-0.716,0.224-1.43,0.515-2.144,0.871c-2.324,1.52-4.469,3.128-6.433,4.824c-2.412,2.056-4.646,4.311-6.699,6.767
		c-2.057,2.458-3.977,4.981-5.763,7.571c-0.804,1.162-1.607,2.324-2.412,3.484c-0.804,1.162-1.607,2.368-2.411,3.618
		c-2.771,4.288-5.249,8.71-7.438,13.266c-2.19,4.556-4.311,9.158-6.365,13.802c-0.448,0.984-0.67,1.989-0.67,3.015
		C792.237,212.019,792.371,213.158,792.639,214.408z"/>
	<path fill="#5C8729" d="M948.345,255.279c-0.091,4.288-0.225,8.107-0.402,11.457c-0.18,3.35-0.67,6.589-1.474,9.715
		c-0.717,2.68-1.475,5.339-2.278,7.973c-0.804,2.636-1.832,5.249-3.082,7.839c-1.252,2.412-2.546,4.78-3.886,7.102
		c-1.34,2.324-2.681,4.646-4.021,6.968c-1.43,2.324-3.128,4.378-5.092,6.164c-1.966,1.788-4.02,3.44-6.164,4.958
		c-0.18,0.18-0.335,0.291-0.469,0.335c-0.134,0.046-0.291,0.157-0.469,0.335c-2.86,2.502-5.986,4.087-9.38,4.757
		c-3.396,0.67-6.881,1.005-10.452,1.005c-1.521,0-3.038-0.155-4.557-0.469c-1.52-0.312-3.038-0.603-4.556-0.871
		c-7.594-1.518-13.869-4.556-18.827-9.112c-4.958-4.556-8.911-10.228-11.858-17.018c-2.681-5.984-4.423-12.104-5.227-18.358
		c-0.804-6.252-0.892-12.596-0.268-19.028c0.445-4.824,1.159-9.558,2.144-14.204c0.982-4.644,2.278-9.246,3.886-13.802
		c2.322-6.788,5.314-13.109,8.979-18.961c3.662-5.85,8.262-11.143,13.802-15.879c7.324-6.252,15.856-9.602,25.594-10.05
		c4.557-0.268,8.644,0.515,12.262,2.345c3.617,1.832,6.854,4.489,9.715,7.973c3.216,4.02,5.694,8.331,7.437,12.931
		c1.742,4.602,3.193,9.313,4.355,14.137c0.714,2.948,1.272,5.896,1.675,8.844c0.402,2.948,0.825,5.942,1.273,8.978
		c0.445,2.592,0.824,5.138,1.139,7.638C948.456,251.483,948.523,253.583,948.345,255.279z M884.695,268.545
		c0.088,3.216,0.67,6.947,1.742,11.189c1.072,4.244,2.948,8.421,5.628,12.529c2.858,4.288,6.319,7.46,10.385,9.514
		c4.064,2.056,8.731,2.86,14.003,2.412c1.25-0.178,2.456-0.49,3.618-0.938c1.16-0.446,2.322-0.938,3.484-1.474
		c2.321-1.16,4.131-2.768,5.427-4.824c1.294-2.054,2.522-4.198,3.685-6.432c1.786-3.662,3.036-7.414,3.752-11.256
		c0.715-3.84,1.25-7.726,1.608-11.658c0.356-3.394,0.536-6.744,0.536-10.05c0-3.304-0.358-6.61-1.072-9.916
		c-0.448-2.322-0.85-4.644-1.206-6.968c-0.357-2.322-0.804-4.644-1.34-6.968c-0.716-3.304-1.587-6.566-2.613-9.782
		c-1.027-3.216-2.435-6.252-4.221-9.112c-1.608-2.68-3.44-5.092-5.494-7.236c-2.056-2.144-4.602-3.84-7.638-5.092
		c-2.592-0.982-4.736-1.227-6.432-0.737c-1.698,0.492-3.396,1.855-5.093,4.087c-4.735,6.164-8.531,12.998-11.39,20.502
		c-2.324,6.344-4.087,12.887-5.293,19.631C885.566,252.712,884.873,260.237,884.695,268.545z"/>
	<path fill="#5C8729" d="M995.51,170.859c-0.447-0.088-1.051-0.178-1.809-0.268c-0.76-0.088-1.363-0.134-1.809-0.134h-19.967
		c-1.52,0-3.061,0.067-4.623,0.201c-1.563,0.134-3.148,0.157-4.757,0.067c-0.804,0-1.631-0.088-2.479-0.268
		c-0.851-0.178-1.675-0.402-2.479-0.67c-0.716-0.268-1.386-0.603-2.01-1.005c-0.626-0.402-1.296-0.781-2.01-1.139
		c0.268-1.964,1.428-3.082,3.483-3.35c2.412-0.268,4.824-0.513,7.236-0.737c2.412-0.222,4.778-0.469,7.103-0.737
		c3.84-0.356,7.638-0.624,11.39-0.804c3.752-0.178,7.504-0.178,11.256,0c0.178,0,0.536-0.021,1.072-0.067
		c0.536-0.044,0.892-0.111,1.071-0.201c0.179-1.25,0.356-2.5,0.536-3.752c0.179-1.25,0.356-2.5,0.536-3.752
		c0.446-2.59,0.871-4.979,1.273-7.169c0.401-2.188,0.824-4.577,1.272-7.169c0.179-1.34,0.402-2.68,0.67-4.02
		c0.269-1.34,0.49-2.68,0.67-4.02v-1.206c-0.268-3.484,1.16-5.628,4.288-6.432c1.519-0.446,3.016-0.691,4.489-0.737
		c1.474-0.044,2.835,0.515,4.087,1.675c1.072,0.894,1.943,1.876,2.613,2.948c0.67,1.072,0.871,2.412,0.603,4.02
		c-0.18,1.252-0.247,2.546-0.2,3.886c0.044,1.34,0.066,2.636,0.066,3.886c0,2.68-0.157,5.205-0.469,7.571
		c-0.314,2.368-0.469,4.891-0.469,7.571v6.298c1.071,0,2.144,0,3.216,0s2.144,0.046,3.216,0.134c4.021,0,7.994,0.157,11.926,0.469
		c3.931,0.314,7.86,0.961,11.792,1.943c0.893,0.18,1.764,0.448,2.613,0.804c0.848,0.358,1.719,0.716,2.613,1.072
		c0.268,0.18,0.513,0.381,0.736,0.603c0.223,0.224,0.514,0.425,0.871,0.603c-0.894,0.984-1.809,1.564-2.747,1.742
		c-0.938,0.18-1.898,0.268-2.881,0.268c-2.056,0.09-4.043,0.113-5.963,0.067c-1.922-0.044-3.909,0.023-5.963,0.201
		c-2.948,0.18-5.875,0.381-8.777,0.603c-2.903,0.224-5.829,0.425-8.776,0.603c-0.269,0.09-0.536,0.157-0.805,0.201
		c-0.268,0.046-0.626,0.157-1.071,0.335c0,0.536,0,1.541,0,3.015s-0.023,3.239-0.067,5.293c-0.046,2.056-0.067,4.221-0.067,6.499
		c0,2.278-0.022,4.445-0.066,6.499c-0.046,2.056-0.067,3.819-0.067,5.293s0,2.479,0,3.015v18.76c0,2.144,0.044,5.272,0.134,9.38
		c0.088,4.11,0.201,8.756,0.335,13.936c0.135,5.182,0.289,10.586,0.47,16.214c0.178,5.628,0.423,11.011,0.736,16.147
		c0.313,5.138,0.624,9.782,0.938,13.936c0.312,4.154,0.69,7.259,1.139,9.313c0.624,3.216,1.317,6.432,2.077,9.648
		c0.758,3.216,1.719,6.388,2.881,9.514c0.179,0.536,0.313,1.095,0.402,1.675c0.088,0.582,0.222,1.139,0.402,1.675
		c0.268,0.716,0.535,1.407,0.804,2.077c0.268,0.67,0.58,1.317,0.938,1.943c0.714,1.25,1.407,2.456,2.077,3.618
		c0.67,1.16,1.361,2.366,2.077,3.618c0.624,1.072,0.737,1.987,0.335,2.747c-0.402,0.758-1.229,1.317-2.479,1.675
		c-2.234,0.446-4.355,0.513-6.365,0.201c-2.01-0.314-4.043-0.827-6.097-1.541c-3.129-0.984-5.741-2.479-7.84-4.489
		c-2.1-2.01-3.952-4.445-5.561-7.303c-2.412-4.376-4.268-8.865-5.562-13.467c-1.296-4.6-2.435-9.313-3.417-14.137
		c-0.268-1.25-0.491-3.505-0.67-6.767c-0.18-3.26-0.335-7.035-0.469-11.323s-0.247-8.844-0.335-13.668
		c-0.09-4.824-0.18-9.38-0.268-13.668c-0.091-4.288-0.135-8.061-0.135-11.323c0-3.26,0-5.515,0-6.767
		c0.088-3.394,0.135-6.721,0.135-9.983c0-3.26,0.088-6.543,0.268-9.849c0.088-1.072,0.201-2.657,0.335-4.757
		c0.134-2.098,0.289-4.466,0.469-7.102c0.179-2.634,0.356-5.381,0.536-8.241c0.178-2.858,0.356-5.605,0.536-8.241
		c0.178-2.634,0.335-5.002,0.469-7.102c0.135-2.098,0.245-3.685,0.335-4.757V170.859z"/>
	<path fill="#5C8729" d="M1147.199,323.886c-0.984,0.088-1.966-0.044-2.948-0.402c-0.804-0.178-1.675-0.536-2.613-1.072
		c-0.938-0.536-1.809-1.294-2.612-2.278c-2.681-3.84-4.736-7.906-6.164-12.194c-1.431-4.288-2.681-8.71-3.752-13.266
		c-0.626-2.768-1.162-5.538-1.608-8.308c-0.448-2.768-0.804-5.582-1.072-8.442c-0.447-4.288-0.917-8.509-1.406-12.663
		c-0.492-4.154-0.961-8.375-1.407-12.663c-0.09-1.16-0.157-2.322-0.201-3.484c-0.046-1.16-0.157-2.412-0.335-3.752
		c-0.804,0.984-1.497,1.899-2.077,2.747c-0.582,0.85-1.051,1.765-1.407,2.747c-1.607,4.288-3.463,8.465-5.561,12.529
		c-2.1,4.066-4.221,8.153-6.365,12.261c-0.983,1.698-1.832,3.417-2.546,5.159c-0.716,1.742-1.563,3.463-2.546,5.159
		c-0.716,1.252-1.474,2.435-2.278,3.551c-0.804,1.118-1.607,2.211-2.412,3.283c-1.966,2.412-4.02,4.669-6.164,6.767
		c-2.144,2.1-4.646,3.819-7.504,5.159c-4.468,2.324-9.201,3.262-14.204,2.814c-2.323-0.178-4.354-0.892-6.097-2.144
		c-1.742-1.25-3.283-2.814-4.623-4.69c-1.43-1.876-2.479-3.886-3.148-6.03s-1.14-4.376-1.407-6.7
		c-0.624-4.288-0.737-8.553-0.335-12.797c0.401-4.242,1.049-8.509,1.942-12.797c0.715-3.126,1.495-6.185,2.346-9.179
		c0.848-2.992,2.03-5.917,3.551-8.777c3.484-6.7,8.04-12.73,13.668-18.09c3.394-3.216,6.922-6.164,10.586-8.844
		c3.662-2.68,7.638-5.046,11.926-7.102c4.288-2.054,8.598-3.752,12.932-5.092c4.332-1.34,8.776-2.366,13.333-3.082
		c0.268,0,0.489-0.044,0.67-0.134c0.178-0.088,0.355-0.134,0.536-0.134c0.714-2.232,1.384-4.355,2.01-6.365
		c0.624-2.01,1.294-4.041,2.01-6.097c0.268-0.982,0.825-1.675,1.675-2.077c0.849-0.402,1.897-0.513,3.149-0.335
		c2.231,0.18,3.907,1.095,5.024,2.747c1.116,1.654,1.764,3.239,1.943,4.757c0.446,2.056,0.604,4.154,0.469,6.298
		c-0.134,2.144-0.291,4.244-0.469,6.298c-0.268,5.272-0.492,10.519-0.67,15.745c-0.18,5.226-0.046,10.475,0.402,15.745
		c0.535,6.612,1.316,13.111,2.345,19.497c1.025,6.388,2.255,12.797,3.685,19.229c0.805,3.842,1.696,7.661,2.681,11.457
		c0.981,3.798,1.964,7.571,2.947,11.323c0.536,2.144,1.14,4.244,1.81,6.298c0.67,2.056,1.36,4.154,2.077,6.298
		c0.088,0.358,0.222,0.984,0.401,1.876c0.179,1.252,0.044,2.257-0.401,3.015c-0.448,0.76-1.118,1.587-2.011,2.479
		c-0.716,0.716-1.497,1.273-2.345,1.675c-0.85,0.402-1.675,0.783-2.479,1.139C1149.163,323.306,1148.18,323.618,1147.199,323.886z
		 M1082.878,290.923h0.67c0.536-0.178,0.938-0.356,1.206-0.536c5.002-2.948,8.889-7.012,11.658-12.194
		c0.804-1.518,1.541-3.036,2.211-4.556c0.67-1.518,1.407-3.036,2.211-4.556c1.519-2.858,3.149-5.628,4.892-8.308
		c1.741-2.68,3.148-5.582,4.221-8.71c0.892-2.412,1.92-4.778,3.082-7.102c1.16-2.322,2.231-4.644,3.216-6.968
		c1.25-3.036,2.5-6.074,3.752-9.112c1.25-3.036,2.322-6.118,3.216-9.246c0.269-0.982,0.49-1.964,0.67-2.948
		c0.179-0.982,0.135-2.054-0.134-3.216c-0.984,0.18-1.899,0.425-2.747,0.737c-0.85,0.314-1.675,0.693-2.479,1.139
		c-3.217,1.608-6.365,3.306-9.447,5.092c-3.082,1.788-6.053,3.752-8.911,5.896c-2.324,1.788-4.512,3.641-6.565,5.561
		c-2.057,1.922-3.709,4.177-4.958,6.767c-0.536,1.162-1.096,2.301-1.676,3.417c-0.582,1.118-1.095,2.257-1.541,3.417
		c-0.716,1.876-1.406,3.775-2.077,5.695c-0.67,1.922-1.229,3.865-1.675,5.829c-0.448,1.698-0.76,3.417-0.938,5.159
		c-0.181,1.742-0.358,3.507-0.536,5.293c-0.358,2.948-0.516,5.896-0.469,8.844c0.044,2.948,0.335,5.896,0.871,8.844
		c0.178,0.984,0.423,1.989,0.736,3.015C1081.65,289.203,1082.163,290.118,1082.878,290.923z"/>
	<path fill="#5C8729" d="M1249.439,253c-0.716,0.984-1.43,1.966-2.144,2.948c-0.717,0.984-1.431,1.966-2.145,2.948
		c-3.128,4.02-6.565,7.594-10.317,10.72c-3.752,3.128-8.04,5.674-12.864,7.638c-6.88,2.77-14.16,3.618-21.842,2.546
		c-3.843-0.714-7.125-2.098-9.85-4.154c-2.726-2.054-5.024-4.734-6.9-8.04c-1.608-2.858-2.392-5.739-2.346-8.643
		c0.044-2.902,0.514-5.783,1.407-8.643c1.428-5.002,3.572-9.558,6.432-13.668c2.858-4.108,6.164-7.906,9.916-11.39
		c3.662-3.394,7.438-6.566,11.323-9.514c3.886-2.948,8.151-5.36,12.797-7.236c4.376-1.786,8.798-3.283,13.267-4.489
		c4.466-1.206,9.111-2.031,13.936-2.479c0.178-1.072,0.289-2.077,0.335-3.015c0.044-0.938,0.155-1.897,0.335-2.881
		c0.179-0.892,0.335-1.786,0.47-2.68c0.134-0.892,0.288-1.786,0.469-2.68c0.268-1.16,0.603-1.897,1.005-2.211
		c0.402-0.312,1.227-0.513,2.479-0.603c1.16-0.178,2.322-0.245,3.484-0.201c1.16,0.046,2.188,0.649,3.082,1.809
		c0.178,0.268,0.379,0.559,0.603,0.871c0.223,0.314,0.38,0.649,0.47,1.005c0.445,2.234,0.915,4.468,1.406,6.7
		c0.49,2.234,0.959,4.468,1.407,6.7c0.714,3.396,1.407,6.813,2.077,10.251c0.67,3.44,1.227,6.901,1.675,10.385
		c1.34,9.202,2.121,18.425,2.346,27.671c0.222,9.246,0.335,18.559,0.335,27.939c0,6.968-0.113,13.869-0.335,20.703
		c-0.225,6.834-0.649,13.735-1.273,20.703c-0.268,3.394-0.536,6.051-0.804,7.973c-0.269,1.92-0.604,3.662-1.005,5.226
		c-0.402,1.562-0.917,3.26-1.541,5.092c-0.626,1.83-1.475,4.355-2.546,7.571c-1.072,3.304-2.302,6.52-3.686,9.648
		c-1.386,3.126-3.015,6.118-4.891,8.978c-4.736,7.146-10.677,13.266-17.822,18.358c-2.324,1.608-4.669,3.036-7.035,4.288
		c-2.368,1.25-4.891,2.278-7.571,3.082c-4.646,1.518-9.179,2.031-13.601,1.541c-4.422-0.492-8.823-1.765-13.199-3.819
		c-4.288-2.056-8.086-4.512-11.39-7.37c-3.307-2.86-6.298-6.164-8.979-9.916c-2.323-3.306-4.087-6.767-5.293-10.385
		c-1.206-3.618-2.032-7.437-2.479-11.457c-0.536-4.824-0.67-9.648-0.402-14.472c0.536-6.522,2.5-12.328,5.896-17.42
		c0.714-1.16,1.742-2.01,3.082-2.546s2.768-0.714,4.288-0.536c0.445,0,0.938-0.021,1.474-0.067c0.536-0.044,1.026-0.111,1.474-0.201
		c0.536-0.088,1.206-0.067,2.011,0.067c0.804,0.134,1.585,0.358,2.345,0.67c0.758,0.314,1.428,0.693,2.01,1.139
		c0.58,0.448,1.005,0.938,1.273,1.474c0.178,0.536,0.222,1.028,0.134,1.474c-0.181,0.716-0.358,1.206-0.536,1.474
		c-1.698,2.858-2.747,5.806-3.149,8.844c-0.401,3.036-0.603,6.118-0.603,9.246c-0.09,1.786-0.157,3.595-0.201,5.427
		c-0.046,1.83,0.201,3.639,0.737,5.427c0.892,3.216,2.366,6.164,4.422,8.844c2.5,3.126,5.628,5.226,9.38,6.298
		c3.752,1.072,7.726,0.938,11.926-0.402c4.734-1.52,8.798-3.819,12.194-6.901c3.394-3.082,6.208-6.857,8.442-11.323
		c1.964-3.752,3.527-7.638,4.689-11.658c1.16-4.02,2.232-8.04,3.216-12.06c0.624-2.412,1.026-4.131,1.206-5.159
		c0.178-1.026,0.289-1.897,0.335-2.613c0.044-0.714,0.088-1.562,0.135-2.546c0.044-0.982,0.2-2.724,0.469-5.226
		c0.804-6.878,1.562-13.735,2.277-20.569c0.715-6.834,1.429-13.735,2.145-20.703c0.178-2.232,0.312-4.466,0.402-6.7
		c0.088-2.232,0.222-4.466,0.401-6.7c-0.18-0.088-0.291-0.155-0.335-0.201C1249.728,253.157,1249.617,253.091,1249.439,253z
		 M1204.281,259.432c0,3.396,1.786,4.646,5.36,3.752c4.824-1.25,9.2-3.237,13.132-5.963c3.93-2.724,7.548-5.873,10.854-9.447
		c4.02-4.556,7.37-9.424,10.05-14.606c2.68-5.18,4.912-10.674,6.7-16.482c0.268-0.624,0.401-1.25,0.401-1.876
		c0.179-3.036-1.027-3.886-3.618-2.546c-2.411,1.252-4.512,2.592-6.298,4.02c-3.128,2.592-6.254,5.182-9.38,7.772
		c-3.128,2.592-6.254,5.182-9.38,7.772c-2.77,2.324-5.293,4.87-7.571,7.638c-2.277,2.77-4.311,5.718-6.097,8.844
		C1206.201,252.153,1204.817,255.861,1204.281,259.432z"/>
	<path fill="#5C8729" d="M1375.8,269.483c-1.698,3.752-3.417,7.46-5.159,11.122c-1.742,3.664-3.598,7.326-5.562,10.988
		c-1.788,3.484-3.818,6.813-6.097,9.983c-2.278,3.172-4.713,6.231-7.303,9.179c-3.933,4.646-8.375,8.153-13.333,10.519
		c-4.958,2.368-10.653,3.193-17.085,2.479c-6.7-0.714-12.418-2.814-17.152-6.298c-4.736-3.484-8.666-8.174-11.792-14.07
		c-2.144-4.288-3.819-8.643-5.025-13.065s-2.032-8.999-2.479-13.735c-0.448-3.662-0.647-7.28-0.604-10.854
		c0.047-3.572,0.155-7.19,0.335-10.854c0.179-3.752,0.58-7.458,1.206-11.122c0.624-3.662,1.475-7.324,2.546-10.988
		c1.519-5.36,3.371-10.54,5.562-15.544c2.188-5.002,5.069-9.692,8.643-14.07c2.145-2.68,4.511-5.069,7.103-7.169
		c2.59-2.098,5.403-3.953,8.441-5.561c2.591-1.34,5.247-2.433,7.974-3.283c2.724-0.848,5.515-1.361,8.375-1.541
		c3.216-0.178,6.386,0,9.514,0.536c3.126,0.536,6.118,1.832,8.979,3.886c0.714,0.536,1.45,1.051,2.211,1.541
		c0.758,0.492,1.541,0.961,2.345,1.407c2.768,1.788,5.159,3.932,7.169,6.432c2.01,2.502,3.863,5.182,5.561,8.04
		c1.696,2.86,2.769,5.896,3.217,9.112c0.445,3.216,0.355,6.522-0.269,9.916c-2.144,11.078-7.37,20.592-15.678,28.542
		c-2.412,2.324-4.87,4.579-7.37,6.767c-2.502,2.19-5.138,4.221-7.906,6.097c-3.932,2.592-8.019,4.69-12.261,6.298
		c-4.244,1.608-8.777,2.502-13.601,2.68c-0.091,0-0.492,0.09-1.206,0.268c0.624,3.842,1.562,7.46,2.813,10.854
		c1.25,3.396,3.082,6.522,5.494,9.38c2.054,2.324,4.355,4.066,6.901,5.226c2.546,1.162,5.337,1.832,8.375,2.01
		c1.25,0.09,2.345-0.155,3.282-0.737c0.938-0.58,1.897-1.227,2.882-1.943c2.054-1.786,3.93-3.729,5.628-5.829
		c1.695-2.098,3.26-4.309,4.689-6.633c2.055-3.126,3.931-6.298,5.628-9.514c1.696-3.216,3.217-6.52,4.557-9.916
		c0.714-1.608,1.541-2.969,2.479-4.087c0.938-1.116,2.299-1.809,4.087-2.077c1.072,0.09,2.011,0.358,2.814,0.804
		c0.624,0.448,1.116,1.051,1.474,1.809C1376.558,267.227,1376.423,268.233,1375.8,269.483z M1313.892,269.348
		c1.16-0.178,2.211-0.312,3.148-0.402c0.938-0.088,1.854-0.268,2.747-0.536c3.126-0.714,6.098-1.763,8.911-3.149
		c2.814-1.384,5.471-3.015,7.973-4.891c2.055-1.518,4.021-3.059,5.896-4.623c1.876-1.562,3.706-3.193,5.494-4.891
		c3.752-3.394,6.7-7.236,8.844-11.524c2.145-4.288,3.618-8.888,4.422-13.802c0.446-2.232,0.446-4.355,0-6.365
		c-0.448-2.01-1.43-3.907-2.948-5.695c-2.859-3.394-6.23-5.605-10.116-6.633c-3.887-1.026-7.839-0.557-11.859,1.407
		c-3.484,1.698-6.499,3.909-9.045,6.633c-2.546,2.726-4.669,5.785-6.365,9.179c-2.86,5.718-4.914,11.838-6.164,18.358
		c-0.716,3.484-1.229,6.968-1.541,10.452c-0.313,3.484-0.381,7.014-0.201,10.586c0.088,0.984,0.201,1.943,0.335,2.881
		C1313.557,267.271,1313.711,268.277,1313.892,269.348z"/>
	<path fill="#5C8729" d="M1461.158,205.43c0.536,3.664,0.959,7.282,1.272,10.854c0.313,3.574,0.424,7.236,0.335,10.988
		c0,0.804-0.046,1.608-0.134,2.412c-0.09,0.804-0.224,1.564-0.401,2.278l-0.805,7.638c-0.983,0.448-1.765,0.603-2.345,0.469
		c-0.582-0.134-1.185-0.647-1.809-1.541c-2.502-3.126-3.933-6.52-4.288-10.184c-0.358-2.59-0.604-5.226-0.737-7.906
		c-0.134-2.68-0.381-5.313-0.737-7.906c-0.268-1.876-0.648-3.773-1.139-5.695c-0.492-1.92-0.961-3.819-1.407-5.695
		c-0.18-0.624-0.425-1.227-0.736-1.809c-0.314-0.58-0.649-1.227-1.006-1.943c-0.894,0.716-1.765,1.363-2.612,1.943
		c-0.851,0.583-1.631,1.229-2.346,1.943c-3.128,3.038-6.075,6.231-8.844,9.581c-2.77,3.35-5.315,6.901-7.638,10.653
		c-2.145,3.484-3.999,7.102-5.562,10.854c-1.563,3.752-2.837,7.638-3.818,11.658c-0.181,0.448-0.269,0.961-0.269,1.541
		c0,0.583,0,1.139,0,1.675c0.269,2.324,0.558,4.623,0.871,6.901c0.313,2.278,0.691,4.579,1.14,6.901
		c0.623,2.86,1.093,5.762,1.406,8.71c0.313,2.948,0.691,5.896,1.14,8.844c0.178,0.894,0.335,1.742,0.469,2.546
		c0.134,0.804,0.289,1.608,0.469,2.412c0.178,1.876,0.379,3.752,0.604,5.628c0.222,1.876,0.423,3.708,0.603,5.494
		c0.269,1.788,0.536,3.618,0.804,5.494c0.269,1.876,0.536,3.708,0.805,5.494c0.178,0.804,0.355,1.608,0.536,2.412
		c0.178,0.804,0.355,1.608,0.535,2.412c0.179,0.626,0.223,1.252,0.135,1.876c-0.091,0.626-0.181,1.252-0.269,1.876
		c-0.09,1.162-0.247,2.301-0.469,3.417c-0.224,1.118-0.693,2.123-1.407,3.015l-0.804,0.804c-0.716,0.626-1.654,0.938-2.814,0.938
		c-0.894,0.448-2.1,0.85-3.617,1.206c-1.521,0.356-3.062,0.536-4.623,0.536c-1.564,0-2.994-0.247-4.288-0.737
		c-1.296-0.49-2.167-1.361-2.613-2.613c-1.162-3.662-2.301-8.308-3.417-13.936c-1.118-5.628-2.211-11.813-3.283-18.559
		c-1.072-6.744-2.1-13.802-3.082-21.172c-0.984-7.37-1.898-14.65-2.747-21.842c-0.85-7.19-1.607-14.047-2.277-20.569
		c-0.671-6.52-1.253-12.282-1.742-17.286c-0.492-5.002-0.851-9.022-1.072-12.06c-0.224-3.036-0.335-4.644-0.335-4.824
		c0.088-0.268,0.49-0.58,1.206-0.938c0.714-0.356,1.541-0.67,2.479-0.938c0.938-0.268,1.897-0.513,2.882-0.737
		c0.981-0.222,1.741-0.423,2.277-0.603c0.088-0.088,0.269-0.134,0.536-0.134c0.088,0,0.134-0.044,0.134-0.134v0.134
		c0.536-0.178,1.049-0.268,1.541-0.268c0.49,0,0.959,0,1.407,0c0.982,0,1.652,0.314,2.01,0.938c0.356,0.626,0.805,1.34,1.34,2.144
		c1.786,2.86,3.261,5.919,4.423,9.179c1.159,3.262,2.188,6.589,3.082,9.983c0.623,2.324,1.139,4.646,1.541,6.968
		c0.401,2.324,0.824,4.646,1.272,6.968c0,0.18,0.021,0.335,0.067,0.469c0.044,0.134,0.11,0.425,0.201,0.871
		c0.355-0.714,0.67-1.34,0.938-1.876c0.268-0.536,0.49-1.026,0.67-1.474c1.696-4.108,3.974-8.084,6.834-11.926
		c2.322-3.036,4.69-6.03,7.103-8.978c2.411-2.948,5.136-5.628,8.174-8.04c0.624-0.536,1.272-1.049,1.942-1.541
		c0.67-0.49,1.361-1.049,2.077-1.675c1.608-1.25,3.327-2.031,5.159-2.345c1.83-0.312,3.729-0.379,5.695-0.201
		c0.804,0.09,1.474,0.402,2.01,0.938s1.026,1.118,1.474,1.742c1.964,2.412,3.327,5.004,4.087,7.772
		C1460.107,199.624,1460.709,202.483,1461.158,205.43z"/>
	<path fill="#5C8729" d="M1561.12,177.961c1.072-1.608,2.077-3.103,3.015-4.489c0.938-1.384,1.897-2.747,2.882-4.087
		c2.857-4.198,6.117-7.86,9.781-10.988c3.662-3.126,7.639-5.984,11.927-8.576c4.02-2.59,8.575-4.51,13.668-5.762
		c5.447-1.25,10.07-0.804,13.868,1.34c3.796,2.144,6.989,5.36,9.581,9.648c1.608,2.86,2.725,5.808,3.351,8.844
		c0.624,3.038,1.025,6.12,1.206,9.246c0.178,4.468-0.181,8.823-1.072,13.065c-0.895,4.244-1.966,8.509-3.216,12.797
		c-2.234,7.326-4.757,14.518-7.571,21.574c-2.813,7.058-5.785,14.07-8.911,21.038c-2.502,5.628-5.004,11.189-7.504,16.683
		c-2.502,5.494-5.138,10.921-7.906,16.281c-2.412,4.736-4.847,9.38-7.303,13.936c-2.458,4.556-4.98,9.158-7.571,13.802
		c-0.804,1.521-1.563,3.062-2.277,4.623c-0.717,1.564-1.431,3.149-2.145,4.757c-0.983,2.234-2.277,4.154-3.886,5.762
		s-3.44,3.038-5.494,4.288c-1.607,0.984-3.239,1.52-4.891,1.608c-1.654,0.09-3.329,0.268-5.025,0.536
		c-0.626,0-1.072-0.134-1.34-0.402c-0.984-0.982-1.943-1.943-2.881-2.881c-0.938-0.938-1.675-2.121-2.211-3.551
		c-1.521-4.02-2.592-8.107-3.216-12.261c-0.626-4.154-1.162-8.375-1.608-12.663c-0.448-4.644-0.961-9.246-1.541-13.802
		c-0.582-4.556-1.139-9.156-1.675-13.802c-0.626-4.734-1.162-9.447-1.608-14.137c-0.448-4.69-0.716-9.447-0.804-14.271
		c-0.18-5.092-0.425-10.094-0.737-15.008c-0.313-4.912-0.469-9.916-0.469-15.008c0-4.108,0.044-8.218,0.134-12.328
		c0.088-4.108,0.356-8.218,0.805-12.328c0.178-1.786,0.288-3.618,0.335-5.494c0.044-1.876,0.154-3.752,0.335-5.628
		c0.178-2.322,0.804-4.332,1.876-6.03c1.071-1.696,2.5-3.17,4.288-4.422c2.231-1.608,4.442-2.01,6.633-1.206
		c2.188,0.804,3.862,2.368,5.024,4.69c0.714,1.608,1.361,3.306,1.943,5.092c0.58,1.788,1.005,3.574,1.273,5.36
		C1560.36,174.7,1560.671,176.085,1561.12,177.961z M1567.15,288.51c0.892-0.982,1.562-1.964,2.01-2.948
		c0.446-0.982,0.871-1.896,1.273-2.747c0.401-0.848,0.824-1.719,1.272-2.613c2.948-5.092,5.762-10.251,8.442-15.477
		c2.68-5.226,5.313-10.519,7.905-15.879c1.519-3.036,2.97-6.051,4.355-9.045c1.384-2.992,2.835-6.051,4.354-9.179
		c1.786-3.572,3.528-7.123,5.227-10.653c1.696-3.528,3.304-7.169,4.824-10.921c1.607-3.752,3.126-7.458,4.556-11.122
		c1.428-3.662,2.634-7.504,3.618-11.524c0.536-2.054,1.072-4.087,1.607-6.097c0.536-2.01,0.893-4.087,1.072-6.231
		c0.178-1.964,0.134-3.907-0.134-5.829c-0.268-1.92-0.895-3.773-1.876-5.561c-0.716-1.518-1.521-2.523-2.412-3.015
		c-0.894-0.49-2.19-0.647-3.886-0.469c-0.448,0.09-0.851,0.157-1.206,0.201c-0.358,0.046-0.76,0.157-1.206,0.335
		c-3.216,0.894-6.164,2.211-8.844,3.953c-2.681,1.742-5.272,3.641-7.772,5.695c-5.182,4.378-9.782,9.158-13.802,14.338
		c-4.021,5.182-7.729,10.676-11.122,16.482c-1.252,2.234-2.211,4.535-2.881,6.901c-0.67,2.368-0.871,4.891-0.604,7.571
		c0.269,2.948,0.446,5.896,0.536,8.844c0.088,2.948,0.222,5.896,0.402,8.844c0.355,6.432,0.714,12.82,1.072,19.162
		c0.355,6.344,0.804,12.73,1.34,19.162c0.268,2.592,0.489,5.226,0.67,7.906c0.178,2.68,0.355,5.36,0.536,8.04
		c0,0.268,0.021,0.582,0.066,0.938C1566.59,287.93,1566.792,288.242,1567.15,288.51z"/>
	<path fill="#5C8729" d="M1727.546,269.483c-1.698,3.752-3.417,7.46-5.159,11.122c-1.742,3.664-3.598,7.326-5.562,10.988
		c-1.788,3.484-3.818,6.813-6.097,9.983c-2.278,3.172-4.713,6.231-7.303,9.179c-3.933,4.646-8.375,8.153-13.333,10.519
		c-4.958,2.368-10.653,3.193-17.085,2.479c-6.7-0.714-12.418-2.814-17.152-6.298c-4.736-3.484-8.666-8.174-11.792-14.07
		c-2.144-4.288-3.819-8.643-5.025-13.065s-2.032-8.999-2.479-13.735c-0.448-3.662-0.647-7.28-0.604-10.854
		c0.047-3.572,0.155-7.19,0.335-10.854c0.179-3.752,0.58-7.458,1.206-11.122c0.624-3.662,1.475-7.324,2.546-10.988
		c1.519-5.36,3.371-10.54,5.562-15.544c2.188-5.002,5.069-9.692,8.643-14.07c2.145-2.68,4.511-5.069,7.103-7.169
		c2.59-2.098,5.403-3.953,8.441-5.561c2.591-1.34,5.247-2.433,7.974-3.283c2.724-0.848,5.515-1.361,8.375-1.541
		c3.216-0.178,6.386,0,9.514,0.536c3.126,0.536,6.118,1.832,8.979,3.886c0.714,0.536,1.45,1.051,2.211,1.541
		c0.758,0.492,1.541,0.961,2.345,1.407c2.768,1.788,5.159,3.932,7.169,6.432c2.01,2.502,3.863,5.182,5.561,8.04
		c1.696,2.86,2.769,5.896,3.217,9.112c0.445,3.216,0.355,6.522-0.269,9.916c-2.144,11.078-7.37,20.592-15.678,28.542
		c-2.412,2.324-4.87,4.579-7.37,6.767c-2.502,2.19-5.138,4.221-7.906,6.097c-3.932,2.592-8.019,4.69-12.261,6.298
		c-4.244,1.608-8.777,2.502-13.601,2.68c-0.091,0-0.492,0.09-1.206,0.268c0.624,3.842,1.562,7.46,2.813,10.854
		c1.25,3.396,3.082,6.522,5.494,9.38c2.054,2.324,4.355,4.066,6.901,5.226c2.546,1.162,5.337,1.832,8.375,2.01
		c1.25,0.09,2.345-0.155,3.282-0.737c0.938-0.58,1.897-1.227,2.882-1.943c2.054-1.786,3.93-3.729,5.628-5.829
		c1.695-2.098,3.26-4.309,4.689-6.633c2.055-3.126,3.931-6.298,5.628-9.514c1.696-3.216,3.217-6.52,4.557-9.916
		c0.714-1.608,1.541-2.969,2.479-4.087c0.938-1.116,2.299-1.809,4.087-2.077c1.072,0.09,2.011,0.358,2.814,0.804
		c0.624,0.448,1.116,1.051,1.474,1.809C1728.304,267.227,1728.169,268.233,1727.546,269.483z M1665.638,269.348
		c1.16-0.178,2.211-0.312,3.148-0.402c0.938-0.088,1.854-0.268,2.747-0.536c3.126-0.714,6.098-1.763,8.911-3.149
		c2.814-1.384,5.471-3.015,7.973-4.891c2.055-1.518,4.021-3.059,5.896-4.623c1.876-1.562,3.706-3.193,5.494-4.891
		c3.752-3.394,6.7-7.236,8.844-11.524c2.145-4.288,3.618-8.888,4.422-13.802c0.446-2.232,0.446-4.355,0-6.365
		c-0.448-2.01-1.43-3.907-2.948-5.695c-2.859-3.394-6.23-5.605-10.116-6.633c-3.887-1.026-7.839-0.557-11.859,1.407
		c-3.484,1.698-6.499,3.909-9.045,6.633c-2.546,2.726-4.669,5.785-6.365,9.179c-2.86,5.718-4.914,11.838-6.164,18.358
		c-0.716,3.484-1.229,6.968-1.541,10.452c-0.313,3.484-0.381,7.014-0.201,10.586c0.088,0.984,0.201,1.943,0.335,2.881
		C1665.303,267.271,1665.458,268.277,1665.638,269.348z"/>
	<path fill="#5C8729" d="M537.372,567.213c-0.984-0.805-1.722-1.719-2.211-2.746c-0.492-1.027-0.917-2.078-1.273-3.15
		c-0.18-0.713-0.358-1.428-0.536-2.143c-0.18-0.715-0.357-1.43-0.536-2.145c-0.894-2.412-1.497-4.846-1.809-7.303
		c-0.314-2.457-0.649-4.979-1.005-7.572c-0.448-4.287-0.917-8.553-1.407-12.797c-0.492-4.242-0.961-8.508-1.407-12.797
		c-0.448-4.02-0.871-7.949-1.272-11.791c-0.402-3.84-0.827-7.773-1.273-11.793c-0.894-6.967-1.52-13.889-1.876-20.77
		c-0.358-6.879-0.716-13.803-1.072-20.77c-0.626-1.16-0.804-2.299-0.535-3.418c0.268-1.115,0.355-2.299,0.268-3.551
		c-0.09-2.322-0.201-4.623-0.335-6.9c-0.134-2.278-0.247-4.577-0.335-6.901c-0.181-2.412-0.269-4.845-0.269-7.304
		c0-2.455-0.046-4.89-0.134-7.302c0-0.268,0.044-0.557,0.134-0.871c0.088-0.312,0.088-0.603,0-0.871
		c-0.535-2.054-0.312-3.84,0.671-5.36c0.981-1.518,2.098-2.992,3.35-4.422c0.268-0.356,0.67-0.536,1.206-0.536
		c1.072-0.088,2.121-0.155,3.148-0.201c1.026-0.044,2.031,0.023,3.016,0.201c1.428,0.18,2.68,0.76,3.752,1.742
		c1.072,0.984,1.742,2.234,2.01,3.752c0.269,1.966,0.513,3.909,0.737,5.829c0.222,1.922,0.469,3.865,0.736,5.829
		c0,0.268,0.021,0.559,0.067,0.871c0.044,0.314,0.111,0.693,0.201,1.14c2.054-2.59,4.041-5.092,5.963-7.504
		c1.92-2.412,3.907-4.778,5.963-7.102c2.858-3.216,5.917-6.208,9.179-8.978c3.261-2.768,6.812-5.18,10.653-7.236
		c5.36-2.858,10.898-4.242,16.616-4.154c2.054,0.09,3.819,0.559,5.293,1.407c1.474,0.85,2.613,2.301,3.417,4.355
		c0.446,1.072,0.758,2.123,0.938,3.149c0.179,1.028,0.179,2.123,0,3.283c-0.268,4.2-1.252,8.04-2.947,11.524
		c-1.698,3.484-3.933,6.746-6.7,9.782c-4.646,5.092-9.694,9.647-15.143,13.668c-5.449,4.02-11.212,7.637-17.285,10.854
		c-0.717,0.447-1.431,0.871-2.145,1.273c-0.716,0.402-1.52,0.826-2.412,1.273c0.269,0.357,0.514,0.691,0.737,1.004
		c0.222,0.314,0.513,0.604,0.871,0.871c5.983,5.896,11.658,12.328,17.018,19.297c2.5,3.305,4.824,6.699,6.969,10.184
		c2.144,3.484,4.153,7.059,6.029,10.721c2.322,4.377,4.198,8.865,5.628,13.467c1.429,4.602,2.725,9.268,3.887,14.002
		c0.892,3.574,1.719,7.125,2.479,10.652c0.758,3.531,1.495,7.082,2.211,10.654c0.624,3.127,1.026,6.277,1.206,9.447
		c0.178,3.172,0,6.365-0.536,9.58c-0.18,0.984-0.335,1.943-0.469,2.881s-0.291,1.9-0.469,2.881
		c-0.448,0.984-0.938,1.789-1.475,2.412c-0.536,0.627-1.185,1.119-1.942,1.475c-0.761,0.357-1.722,0.402-2.881,0.135
		c-2.681-2.682-4.469-5.674-5.36-8.979c-0.716-2.949-1.407-5.918-2.077-8.912c-0.67-2.992-1.273-5.963-1.809-8.91
		c-1.252-6.787-2.681-13.512-4.288-20.168c-1.608-6.652-3.664-13.197-6.164-19.631c-2.502-6.609-5.474-12.93-8.911-18.961
		c-3.44-6.029-7.617-11.635-12.529-16.816c-1.162-1.25-2.301-2.523-3.417-3.818c-1.118-1.295-2.345-2.701-3.685-4.221
		c0,0.535-0.023,0.961-0.067,1.271c-0.046,0.314-0.066,0.561-0.066,0.738c0.178,2.055,0.355,4.133,0.535,6.23
		c0.179,2.1,0.402,4.178,0.671,6.23c0.445,4.02,0.958,7.953,1.54,11.793c0.58,3.842,1.14,7.771,1.676,11.791
		c0.714,4.646,1.428,9.27,2.144,13.869c0.714,4.602,1.34,9.225,1.876,13.869c0.446,3.307,0.781,6.59,1.005,9.85
		c0.223,3.262,0.335,6.545,0.335,9.848c0.088,2.324-0.046,4.557-0.401,6.701c-0.358,2.145-0.717,4.334-1.072,6.566
		c-0.18,1.252-0.381,2.523-0.604,3.818c-0.224,1.297-0.559,2.568-1.005,3.818c-0.447,1.162-1.386,2.211-2.813,3.15
		c-1.431,0.938-2.771,1.316-4.021,1.139c-0.536-0.178-1.027-0.336-1.474-0.469c-0.448-0.135-0.895-0.289-1.34-0.471
		C538.263,567.57,537.817,567.392,537.372,567.213z M540.185,438.572c0.088,0.182,0.222,0.359,0.402,0.537
		c0.892-0.447,1.763-0.938,2.613-1.475c0.848-0.535,1.719-1.025,2.612-1.475c4.376-2.59,8.731-5.18,13.065-7.771
		c4.332-2.59,8.509-5.447,12.529-8.576c1.876-1.518,3.752-3.015,5.628-4.489c1.876-1.474,3.571-3.149,5.092-5.025
		c1.428-1.786,2.566-3.662,3.417-5.628c0.848-1.964,1.227-4.108,1.139-6.432c-0.09-0.982-0.291-1.629-0.603-1.943
		c-0.314-0.312-0.961-0.289-1.943,0.067c-3.038,0.984-5.718,2.1-8.04,3.35c-4.02,2.056-7.661,4.556-10.921,7.504
		c-3.262,2.948-6.277,6.164-9.045,9.648c-2.592,3.306-5.115,6.611-7.571,9.916c-2.458,3.306-4.891,6.656-7.303,10.049
		c-0.269,0.27-0.469,0.561-0.604,0.871C540.52,438.015,540.363,438.304,540.185,438.572z"/>
	<path fill="#5C8729" d="M699.913,500.078c-0.091,4.289-0.225,8.107-0.402,11.457c-0.18,3.352-0.67,6.59-1.474,9.717
		c-0.717,2.68-1.475,5.338-2.278,7.973s-1.832,5.248-3.082,7.838c-1.252,2.412-2.546,4.781-3.886,7.102
		c-1.34,2.324-2.681,4.646-4.021,6.969c-1.43,2.324-3.128,4.379-5.092,6.164c-1.966,1.789-4.02,3.439-6.164,4.959
		c-0.18,0.18-0.335,0.291-0.469,0.334c-0.134,0.047-0.291,0.156-0.469,0.336c-2.86,2.502-5.986,4.086-9.38,4.756
		c-3.396,0.67-6.881,1.006-10.452,1.006c-1.521,0-3.038-0.156-4.557-0.469c-1.52-0.313-3.038-0.604-4.556-0.871
		c-7.594-1.52-13.869-4.557-18.827-9.113c-4.958-4.555-8.911-10.227-11.858-17.018c-2.681-5.984-4.423-12.104-5.227-18.357
		c-0.804-6.252-0.892-12.596-0.268-19.029c0.445-4.822,1.159-9.557,2.144-14.203c0.982-4.645,2.278-9.246,3.886-13.803
		c2.322-6.787,5.314-13.107,8.979-18.961c3.662-5.85,8.262-11.143,13.802-15.879c7.324-6.252,15.856-9.602,25.594-10.049
		c4.557-0.269,8.644,0.515,12.262,2.344c3.617,1.832,6.854,4.49,9.715,7.975c3.216,4.02,5.694,8.33,7.437,12.93
		c1.742,4.602,3.193,9.313,4.355,14.137c0.714,2.949,1.272,5.896,1.675,8.844c0.402,2.949,0.825,5.943,1.273,8.979
		c0.445,2.592,0.824,5.139,1.139,7.639C700.023,496.283,700.09,498.383,699.913,500.078z M636.262,513.345
		c0.088,3.215,0.67,6.947,1.742,11.188c1.072,4.244,2.948,8.422,5.628,12.529c2.858,4.289,6.319,7.461,10.385,9.514
		c4.064,2.057,8.731,2.861,14.003,2.412c1.25-0.178,2.456-0.488,3.618-0.938c1.16-0.445,2.322-0.938,3.484-1.475
		c2.321-1.158,4.131-2.768,5.427-4.822c1.294-2.055,2.522-4.199,3.685-6.434c1.786-3.662,3.036-7.414,3.752-11.256
		c0.715-3.84,1.25-7.725,1.608-11.658c0.356-3.393,0.536-6.744,0.536-10.049s-0.358-6.611-1.072-9.916
		c-0.448-2.322-0.85-4.645-1.206-6.969c-0.357-2.322-0.804-4.645-1.34-6.967c-0.716-3.305-1.587-6.566-2.613-9.783
		c-1.027-3.215-2.435-6.252-4.221-9.111c-1.608-2.68-3.44-5.092-5.494-7.236c-2.056-2.145-4.602-3.84-7.638-5.092
		c-2.592-0.982-4.736-1.227-6.432-0.736c-1.698,0.49-3.396,1.854-5.093,4.086c-4.735,6.164-8.531,12.998-11.39,20.502
		c-2.324,6.344-4.087,12.887-5.293,19.631C637.133,497.511,636.44,505.037,636.262,513.345z"/>
	<path fill="#5C8729" d="M786.608,497.801c-0.716,0.984-1.43,1.967-2.144,2.947c-0.717,0.984-1.431,1.967-2.145,2.949
		c-3.128,4.02-6.565,7.594-10.317,10.721s-8.04,5.674-12.864,7.637c-6.88,2.77-14.16,3.619-21.842,2.547
		c-3.843-0.715-7.125-2.098-9.85-4.154c-2.726-2.055-5.024-4.734-6.9-8.041c-1.608-2.857-2.392-5.738-2.346-8.643
		c0.044-2.902,0.514-5.783,1.407-8.643c1.428-5.002,3.572-9.559,6.432-13.668c2.858-4.107,6.164-7.906,9.916-11.391
		c3.662-3.393,7.438-6.566,11.323-9.514s8.151-5.359,12.797-7.236c4.376-1.785,8.798-3.283,13.267-4.488
		c4.466-1.207,9.111-2.031,13.936-2.479c0.178-1.072,0.289-2.078,0.335-3.016c0.044-0.938,0.155-1.896,0.335-2.881
		c0.179-0.893,0.335-1.787,0.47-2.68c0.134-0.893,0.288-1.787,0.469-2.681c0.268-1.159,0.603-1.897,1.005-2.211
		c0.402-0.312,1.227-0.513,2.479-0.603c1.16-0.178,2.322-0.245,3.484-0.201c1.16,0.046,2.188,0.648,3.082,1.809
		c0.178,0.268,0.379,0.559,0.603,0.871c0.223,0.314,0.38,0.648,0.47,1.005c0.445,2.233,0.915,4.468,1.406,6.7
		c0.49,2.234,0.959,4.469,1.407,6.699c0.714,3.396,1.407,6.814,2.077,10.252c0.67,3.439,1.227,6.9,1.675,10.385
		c1.34,9.201,2.121,18.426,2.346,27.672c0.222,9.246,0.335,18.559,0.335,27.938c0,6.969-0.113,13.869-0.335,20.703
		c-0.225,6.834-0.649,13.736-1.273,20.703c-0.268,3.395-0.536,6.051-0.804,7.973c-0.269,1.92-0.604,3.662-1.005,5.227
		c-0.402,1.563-0.917,3.26-1.541,5.092c-0.626,1.83-1.475,4.355-2.546,7.572c-1.072,3.303-2.302,6.52-3.686,9.646
		c-1.386,3.127-3.015,6.119-4.891,8.979c-4.736,7.146-10.677,13.266-17.822,18.357c-2.324,1.609-4.669,3.037-7.035,4.289
		c-2.368,1.25-4.891,2.277-7.571,3.082c-4.646,1.518-9.179,2.031-13.601,1.541c-4.422-0.492-8.823-1.766-13.199-3.82
		c-4.288-2.055-8.086-4.512-11.39-7.369c-3.307-2.859-6.298-6.164-8.979-9.916c-2.323-3.307-4.087-6.768-5.293-10.385
		s-2.032-7.438-2.479-11.457c-0.536-4.824-0.67-9.648-0.402-14.473c0.536-6.521,2.5-12.328,5.896-17.42
		c0.714-1.16,1.742-2.01,3.082-2.545c1.34-0.537,2.768-0.715,4.288-0.537c0.445,0,0.938-0.02,1.474-0.066
		c0.536-0.045,1.026-0.111,1.474-0.201c0.536-0.088,1.206-0.066,2.011,0.066c0.804,0.135,1.585,0.359,2.345,0.67
		c0.758,0.314,1.428,0.693,2.01,1.141c0.58,0.447,1.005,0.938,1.273,1.473c0.178,0.537,0.222,1.029,0.134,1.475
		c-0.181,0.717-0.358,1.205-0.536,1.475c-1.698,2.857-2.747,5.805-3.149,8.844c-0.401,3.035-0.603,6.117-0.603,9.246
		c-0.09,1.785-0.157,3.594-0.201,5.426c-0.046,1.83,0.201,3.639,0.737,5.428c0.892,3.217,2.366,6.164,4.422,8.844
		c2.5,3.127,5.628,5.227,9.38,6.299s7.726,0.938,11.926-0.402c4.734-1.52,8.798-3.818,12.194-6.9
		c3.394-3.082,6.208-6.857,8.442-11.324c1.964-3.752,3.527-7.639,4.689-11.658c1.16-4.02,2.232-8.039,3.216-12.059
		c0.624-2.412,1.026-4.133,1.206-5.16c0.178-1.025,0.289-1.896,0.335-2.613c0.044-0.713,0.088-1.561,0.135-2.545
		c0.044-0.982,0.2-2.725,0.469-5.227c0.804-6.879,1.562-13.734,2.277-20.568c0.715-6.834,1.429-13.736,2.145-20.703
		c0.178-2.232,0.312-4.467,0.402-6.701c0.088-2.23,0.222-4.465,0.401-6.699c-0.18-0.088-0.291-0.154-0.335-0.201
		C786.897,497.959,786.786,497.89,786.608,497.801z M741.45,504.232c0,3.396,1.786,4.646,5.36,3.752
		c4.824-1.25,9.2-3.236,13.132-5.963c3.93-2.723,7.548-5.873,10.854-9.447c4.02-4.555,7.37-9.424,10.05-14.605
		c2.68-5.18,4.912-10.674,6.7-16.482c0.268-0.623,0.401-1.25,0.401-1.875c0.179-3.037-1.027-3.887-3.618-2.547
		c-2.411,1.252-4.512,2.592-6.298,4.021c-3.128,2.592-6.254,5.182-9.38,7.771c-3.128,2.592-6.254,5.182-9.38,7.771
		c-2.77,2.324-5.293,4.871-7.571,7.639c-2.277,2.77-4.311,5.717-6.097,8.844C743.37,496.953,741.986,500.66,741.45,504.232z"/>
	<path fill="#5C8729" d="M912.969,514.283c-1.698,3.752-3.417,7.459-5.159,11.121c-1.742,3.664-3.598,7.326-5.562,10.988
		c-1.788,3.484-3.818,6.814-6.097,9.984c-2.278,3.172-4.713,6.23-7.303,9.178c-3.933,4.646-8.375,8.154-13.333,10.52
		c-4.958,2.367-10.653,3.193-17.085,2.479c-6.7-0.713-12.418-2.814-17.152-6.297c-4.736-3.484-8.666-8.176-11.792-14.07
		c-2.144-4.289-3.819-8.643-5.025-13.066c-1.206-4.422-2.032-8.998-2.479-13.734c-0.448-3.662-0.647-7.279-0.604-10.854
		c0.047-3.572,0.155-7.189,0.335-10.854c0.179-3.752,0.58-7.459,1.206-11.123c0.624-3.662,1.475-7.324,2.546-10.988
		c1.519-5.359,3.371-10.539,5.562-15.543c2.188-5.002,5.069-9.693,8.643-14.07c2.145-2.68,4.511-5.068,7.103-7.17
		c2.59-2.098,5.403-3.953,8.441-5.561c2.591-1.34,5.247-2.433,7.974-3.283c2.724-0.848,5.515-1.36,8.375-1.541
		c3.216-0.178,6.386,0,9.514,0.537c3.126,0.535,6.118,1.832,8.979,3.885c0.714,0.537,1.45,1.052,2.211,1.541
		c0.758,0.492,1.541,0.961,2.345,1.408c2.768,1.787,5.159,3.932,7.169,6.432c2.01,2.502,3.863,5.182,5.561,8.039
		c1.696,2.861,2.769,5.896,3.217,9.113c0.445,3.215,0.355,6.521-0.269,9.916c-2.144,11.078-7.37,20.592-15.678,28.541
		c-2.412,2.324-4.87,4.58-7.37,6.768c-2.502,2.189-5.138,4.221-7.906,6.098c-3.932,2.592-8.019,4.689-12.261,6.297
		c-4.244,1.607-8.777,2.502-13.601,2.68c-0.091,0-0.492,0.09-1.206,0.27c0.624,3.842,1.562,7.459,2.813,10.854
		c1.25,3.396,3.082,6.521,5.494,9.379c2.054,2.324,4.355,4.066,6.901,5.227c2.546,1.162,5.337,1.832,8.375,2.01
		c1.25,0.09,2.345-0.154,3.282-0.736c0.938-0.58,1.897-1.227,2.882-1.943c2.054-1.785,3.93-3.729,5.628-5.828
		c1.695-2.1,3.26-4.311,4.689-6.635c2.055-3.125,3.931-6.297,5.628-9.514c1.696-3.215,3.217-6.52,4.557-9.916
		c0.714-1.607,1.541-2.969,2.479-4.086c0.938-1.117,2.299-1.809,4.087-2.078c1.072,0.09,2.011,0.359,2.814,0.805
		c0.624,0.447,1.116,1.051,1.474,1.809C913.727,512.027,913.592,513.033,912.969,514.283z M851.061,514.148
		c1.16-0.178,2.211-0.311,3.148-0.402c0.938-0.088,1.854-0.268,2.747-0.535c3.126-0.715,6.098-1.764,8.911-3.148
		c2.814-1.385,5.471-3.016,7.973-4.891c2.055-1.52,4.021-3.061,5.896-4.623s3.706-3.193,5.494-4.893
		c3.752-3.393,6.7-7.234,8.844-11.523c2.145-4.287,3.618-8.889,4.422-13.803c0.446-2.23,0.446-4.354,0-6.363
		c-0.448-2.012-1.43-3.908-2.948-5.695c-2.859-3.395-6.23-5.605-10.116-6.633c-3.887-1.027-7.839-0.557-11.859,1.406
		c-3.484,1.697-6.499,3.908-9.045,6.633c-2.546,2.727-4.669,5.785-6.365,9.18c-2.86,5.717-4.914,11.838-6.164,18.357
		c-0.716,3.484-1.229,6.969-1.541,10.453c-0.313,3.482-0.381,7.014-0.201,10.586c0.088,0.982,0.201,1.941,0.335,2.881
		C850.726,512.072,850.88,513.076,851.061,514.148z"/>
	<path fill="#5C8729" d="M998.327,450.23c0.536,3.664,0.959,7.283,1.272,10.855c0.313,3.572,0.424,7.234,0.335,10.986
		c0,0.805-0.046,1.609-0.134,2.412c-0.09,0.805-0.224,1.564-0.401,2.279l-0.805,7.637c-0.983,0.449-1.765,0.604-2.345,0.469
		c-0.582-0.133-1.185-0.646-1.809-1.541c-2.502-3.125-3.933-6.52-4.288-10.184c-0.358-2.59-0.604-5.225-0.737-7.906
		c-0.134-2.68-0.381-5.313-0.737-7.904c-0.268-1.877-0.648-3.773-1.139-5.695c-0.492-1.92-0.961-3.82-1.407-5.695
		c-0.18-0.625-0.425-1.227-0.736-1.809c-0.314-0.58-0.649-1.229-1.006-1.943c-0.894,0.715-1.765,1.363-2.612,1.943
		c-0.851,0.582-1.631,1.229-2.346,1.941c-3.128,3.039-6.075,6.232-8.844,9.582c-2.77,3.35-5.315,6.9-7.638,10.652
		c-2.145,3.484-3.999,7.102-5.562,10.854c-1.563,3.754-2.837,7.639-3.818,11.658c-0.181,0.449-0.269,0.961-0.269,1.541
		c0,0.582,0,1.141,0,1.676c0.269,2.324,0.558,4.623,0.871,6.9c0.313,2.279,0.691,4.58,1.14,6.902
		c0.623,2.859,1.093,5.762,1.406,8.709c0.313,2.947,0.691,5.896,1.14,8.844c0.178,0.895,0.335,1.742,0.469,2.547
		c0.134,0.803,0.289,1.607,0.469,2.412c0.178,1.875,0.379,3.752,0.604,5.627c0.222,1.877,0.423,3.709,0.603,5.494
		c0.269,1.789,0.536,3.619,0.804,5.494c0.269,1.877,0.536,3.709,0.805,5.494c0.178,0.805,0.355,1.607,0.536,2.412
		c0.178,0.805,0.355,1.607,0.535,2.412c0.179,0.625,0.223,1.252,0.135,1.875c-0.091,0.627-0.181,1.254-0.269,1.877
		c-0.09,1.162-0.247,2.301-0.469,3.416c-0.224,1.119-0.693,2.123-1.407,3.016l-0.804,0.805c-0.716,0.625-1.654,0.938-2.814,0.938
		c-0.894,0.447-2.1,0.85-3.617,1.207c-1.521,0.355-3.062,0.535-4.623,0.535c-1.564,0-2.994-0.248-4.288-0.736
		c-1.296-0.49-2.167-1.361-2.613-2.613c-1.162-3.662-2.301-8.309-3.417-13.936c-1.118-5.629-2.211-11.814-3.283-18.561
		c-1.072-6.744-2.1-13.801-3.082-21.172c-0.984-7.369-1.898-14.65-2.747-21.842c-0.85-7.189-1.607-14.047-2.277-20.568
		c-0.671-6.52-1.253-12.283-1.742-17.287c-0.492-5.002-0.851-9.021-1.072-12.059c-0.224-3.037-0.335-4.645-0.335-4.824
		c0.088-0.269,0.49-0.58,1.206-0.938c0.714-0.356,1.541-0.67,2.479-0.938c0.938-0.268,1.897-0.512,2.882-0.736
		c0.981-0.223,1.741-0.423,2.277-0.604c0.088-0.088,0.269-0.134,0.536-0.134c0.088,0,0.134-0.044,0.134-0.134v0.134
		c0.536-0.178,1.049-0.269,1.541-0.269c0.49,0,0.959,0,1.407,0c0.982,0,1.652,0.314,2.01,0.939c0.356,0.625,0.805,1.34,1.34,2.143
		c1.786,2.861,3.261,5.92,4.423,9.18c1.159,3.262,2.188,6.59,3.082,9.982c0.623,2.324,1.139,4.646,1.541,6.969
		c0.401,2.324,0.824,4.646,1.272,6.969c0,0.18,0.021,0.334,0.067,0.469c0.044,0.133,0.11,0.424,0.201,0.871
		c0.355-0.715,0.67-1.34,0.938-1.877c0.268-0.535,0.49-1.025,0.67-1.475c1.696-4.107,3.974-8.084,6.834-11.926
		c2.322-3.035,4.69-6.029,7.103-8.977c2.411-2.949,5.136-5.629,8.174-8.041c0.624-0.535,1.272-1.049,1.942-1.541
		c0.67-0.49,1.361-1.049,2.077-1.675c1.608-1.25,3.327-2.03,5.159-2.345c1.83-0.313,3.729-0.379,5.695-0.201
		c0.804,0.09,1.474,0.402,2.01,0.938c0.536,0.537,1.026,1.119,1.474,1.742c1.964,2.412,3.327,5.004,4.087,7.771
		C997.276,444.426,997.878,447.283,998.327,450.23z"/>
</g>
</svg>
